<?xml version="1.0" encoding="utf-8"?>
<!-- Generator: Adobe Illustrator 22.1.0, SVG Export Plug-In . SVG Version: 6.00 Build 0)  -->
<svg version="1.1" id="Capa_1" xmlns="http://www.w3.org/2000/svg" xmlns:xlink="http://www.w3.org/1999/xlink" x="0px" y="0px"
	 viewBox="0 0 68.1 56" style="enable-background:new 0 0 68.1 56;" xml:space="preserve">
<style type="text/css">
	.st0{fill:#FFFFFF;}
</style>
<title>Recurso 2</title>
<g id="Capa_2_1_">
	<g id="Capa_2-2">
		<path class="st0" d="M63.7,0H4.4C2,0,0,2,0,4.4v39.5c0,2.4,2,4.4,4.4,4.4h19.8v5.5h-7.7V56h35.1v-2.2h-7.7v-5.5h19.8
			c2.4,0,4.4-2,4.4-4.4V4.4C68.1,2,66.1,0,63.7,0z M41.7,53.8H26.4v-5.5h15.4L41.7,53.8z M65.8,43.9c0,1.2-1,2.2-2.2,2.2H4.4
			c-1.2,0-2.2-1-2.2-2.2V4.4c0-1.2,1-2.2,2.2-2.2h59.3c1.2,0,2.2,1,2.2,2.2L65.8,43.9z"/>
		<path class="st0" d="M4.4,43.9h59.3V4.4H4.4V43.9z M6.6,6.6h54.9v35.1H6.6V6.6z"/>
		<path class="st0" d="M11,9.9c0,0.6-0.5,1.1-1.1,1.1c-0.6,0-1.1-0.5-1.1-1.1c0,0,0,0,0,0c0-0.6,0.5-1.1,1.1-1.1
			C10.5,8.8,11,9.3,11,9.9C11,9.9,11,9.9,11,9.9z"/>
		<path class="st0" d="M14.3,9.9c0,0.6-0.5,1.1-1.1,1.1c-0.6,0-1.1-0.5-1.1-1.1c0-0.6,0.5-1.1,1.1-1.1c0,0,0,0,0,0
			C13.8,8.8,14.3,9.3,14.3,9.9C14.3,9.9,14.3,9.9,14.3,9.9z"/>
		<path class="st0" d="M17.6,9.9c0,0.6-0.5,1.1-1.1,1.1s-1.1-0.5-1.1-1.1c0-0.6,0.5-1.1,1.1-1.1C17.1,8.8,17.6,9.3,17.6,9.9
			L17.6,9.9z"/>
		<path class="st0" d="M8.8,26.4h15.4V13.2H8.8V26.4z M11,15.4h11v8.8H11L11,15.4z"/>
		<path class="st0" d="M26.4,26.4h15.4V13.2H26.4V26.4z M28.6,15.4h11v8.8h-11L28.6,15.4z"/>
		<path class="st0" d="M43.9,26.4h15.4V13.2H43.9V26.4z M46.1,15.4h11v8.8h-11V15.4z"/>
		<rect x="8.8" y="28.5" class="st0" width="32.9" height="2.2"/>
		<rect x="8.8" y="32.9" class="st0" width="32.9" height="2.2"/>
		<rect x="8.8" y="37.3" class="st0" width="32.9" height="2.2"/>
		<rect x="45" y="28.5" class="st0" width="14.3" height="2.2"/>
		<rect x="45" y="32.9" class="st0" width="14.3" height="2.2"/>
		<rect x="45" y="37.3" class="st0" width="14.3" height="2.2"/>
	</g>
</g>
</svg>
