<svg xmlns="http://www.w3.org/2000/svg" viewBox="0 0 71 62.71"><defs><style>.cls-1{fill:#fff;}</style></defs><title>Recurso 3</title><g id="Capa_2" data-name="Capa 2"><g id="Capa_2-2" data-name="Capa 2"><path class="cls-1" d="M27.63,32.59A1.49,1.49,0,0,1,29,29.93a13.48,13.48,0,0,0,12.17,0,1.49,1.49,0,1,1,1.36,2.66,16.36,16.36,0,0,1-7.41,1.77,16.54,16.54,0,0,1-7.48-1.79Zm15.85,8.09H7.21V3H63V25.53a1.5,1.5,0,0,0,3,0v-24A1.5,1.5,0,0,0,64.46,0H5.72A1.49,1.49,0,0,0,4.23,1.49V42.17a1.49,1.49,0,0,0,1.49,1.49H43.48a1.49,1.49,0,1,0,0-3ZM4.71,50.09H31.62a1.48,1.48,0,0,0,1.44,1.12h4.06a1.49,1.49,0,0,0,1.45-1.12h4.91a1.49,1.49,0,1,0,0-3H4.71a4.71,4.71,0,1,0,0,9.41H43.48a1.5,1.5,0,1,0,0-3H4.71a1.72,1.72,0,1,1,0-3.44ZM52.42,25.43a10.49,10.49,0,0,0-5.2-1,8.15,8.15,0,0,0-5.17,1.39,13.11,13.11,0,0,1-6.95,2,13.26,13.26,0,0,1-7-2A8.21,8.21,0,0,0,23,24.4a10.44,10.44,0,0,0-5.19,1A1.49,1.49,0,1,1,16,23a11.93,11.93,0,0,1,6.18-1.58,12.91,12.91,0,0,1,25.77,0A11.86,11.86,0,0,1,54.15,23a1.49,1.49,0,1,1-1.73,2.42ZM45,21.55a9.93,9.93,0,0,0-19.81,0,10.4,10.4,0,0,1,4.48,1.68,10,10,0,0,0,10.81,0A10.46,10.46,0,0,1,45,21.55ZM71,42.24v9.53a10.94,10.94,0,1,1-21.87,0V42.24a10.94,10.94,0,0,1,21.87,0Zm-3,0a7.95,7.95,0,0,0-15.89,0v9.53a7.95,7.95,0,1,0,15.89,0Zm-7.94-4.46a1.5,1.5,0,0,0-1.5,1.49V43a1.5,1.5,0,0,0,3,0V39.27a1.49,1.49,0,0,0-1.49-1.49Z"/></g></g></svg>