<?xml version="1.0" encoding="utf-8"?>
<!-- Generator: Adobe Illustrator 22.1.0, SVG Export Plug-In . SVG Version: 6.00 Build 0)  -->
<svg version="1.1" id="Capa_1" xmlns="http://www.w3.org/2000/svg" xmlns:xlink="http://www.w3.org/1999/xlink" x="0px" y="0px"
	 viewBox="0 0 68 68" style="enable-background:new 0 0 68 68;" xml:space="preserve">
<style type="text/css">
	.st0{fill:#FFFFFF;}
</style>
<title>Recurso 4</title>
<g id="Capa_2_1_">
	<g id="Capa_2-2">
		<path class="st0" d="M45.2,0c-0.1,0-0.2,0-0.2,0.1l0,0l-22.2,10L1.6,1.2C1,1,0.3,1.2,0.1,1.8C0,2,0,2.1,0,2.3v55.6
			c0,0.4,0.3,0.8,0.7,1l21.5,9.1l0,0c0.1,0,0.2,0,0.3,0.1h0.2h0.2c0.1,0,0.2,0,0.3-0.1l0,0l22.2-10l21.1,10c0.4,0.2,0.8,0.1,1.1-0.1
			c0.3-0.2,0.5-0.5,0.5-0.9V11.3c0-0.4-0.3-0.8-0.7-1L45.8,0.1h0c-0.1,0-0.1-0.1-0.2-0.1c-0.1,0-0.1,0-0.2,0H45.2z M65.8,12v53.1
			l-19.9-9.4h0c-0.1,0-0.2-0.1-0.2-0.1c-0.1,0-0.1,0-0.2,0h-0.2c-0.1,0-0.2,0-0.2,0l0,0l-22.2,10L2.3,57.1V4l20,8.4l0,0
			c0.1,0,0.2,0,0.3,0.1h0.2h0.2c0.1,0,0.2,0,0.3-0.1l0,0l22.2-10L65.8,12z"/>
		<path class="st0" d="M44.2,5.7v4.9l-20.4,9.2v-3.9c0-0.6-0.5-1.1-1.1-1.1c-0.6,0-1.1,0.5-1.1,1.1v3.9L7.3,13
			c-0.6-0.3-1.2,0-1.5,0.6c-0.1,0.1-0.1,0.3-0.1,0.4v36.3c0,0.4,0.3,0.8,0.7,1l8,3.8l0,0l7.2,3.4v3.8c0,0.6,0.5,1.1,1.1,1.1
			c0.6,0,1.1-0.5,1.1-1.1v-3.8l8.4-3.8c0.6-0.3,0.8-0.9,0.6-1.5s-0.9-0.8-1.5-0.6l-1.8,0.8V39.3c0-0.2,0-0.3-0.1-0.5l0,0l-0.1-0.1
			c-0.1-0.1-0.2-0.3-0.3-0.3l-0.2-0.1c-0.1,0-0.2,0-0.3,0c-0.1,0-0.1,0-0.2,0l0,0c-0.1,0-0.2,0-0.2,0l-0.2,0.1l0,0l-4.1,1.9V22.3
			l14.8-6.6v10.4c-0.1,0.6,0.4,1.2,1,1.2c0.6,0.1,1.2-0.4,1.2-1c0-0.1,0-0.1,0-0.2V14.6l3.4-1.5V31l-5,2.4c-0.1,0-0.1,0.1-0.1,0.1
			c-0.1,0-0.1,0.1-0.2,0.2c-0.1,0.1-0.2,0.2-0.2,0.4c0,0.1,0,0.2,0,0.2c0,0.1,0,0.1,0,0.2v15l-1.6,0.7c-0.6,0.3-0.8,0.9-0.6,1.5
			s0.9,0.8,1.5,0.6l0,0l6.3-2.8v2.8c-0.1,0.6,0.4,1.2,1,1.2c0.6,0.1,1.2-0.4,1.2-1c0-0.1,0-0.1,0-0.2v-2.7l14.3,6.8
			c0.6,0.3,1.2,0.1,1.5-0.5c0.1-0.2,0.1-0.3,0.1-0.5V18.9c0-0.4-0.3-0.8-0.7-1l-15.4-7.2V5.7c0.1-0.6-0.4-1.2-1-1.2
			c-0.6-0.1-1.2,0.4-1.2,1C44.2,5.5,44.2,5.6,44.2,5.7z M15.9,53.3V42c0.1-0.6-0.4-1.2-1-1.2c-0.6-0.1-1.2,0.4-1.2,1
			c0,0.1,0,0.1,0,0.2v10.3l-5.7-2.7v-24l5.6,2.6c0.6,0.3,1.2,0,1.5-0.5c0.1-0.2,0.1-0.3,0.1-0.5c0-0.4-0.3-0.8-0.6-1l-6.5-3.1v-7.3
			l13.6,6.4V56L15.9,53.3z M27.2,41v13.5l-3.4,1.5V42.7L27.2,41z M40.8,35.1l3.4-1.6v13.4l-3.4,1.5V35.1z M46.5,46.9V33.5L60.1,40
			v13.3L46.5,46.9z M60.1,19.6v5.8l-5.6-2.6c-0.6-0.3-1.2,0-1.5,0.5c-0.3,0.6,0,1.2,0.5,1.5c0,0,0,0,0,0l6.5,3.1v9.6L46.5,31V13.1
			L60.1,19.6z"/>
	</g>
</g>
</svg>
